<?xml version="1.0" encoding="utf-8"?>
<!-- Generator: Adobe Illustrator 25.0.1, SVG Export Plug-In . SVG Version: 6.00 Build 0)  -->
<svg version="1.1" id="Layer_1" xmlns="http://www.w3.org/2000/svg" xmlns:xlink="http://www.w3.org/1999/xlink" x="0px" y="0px"
	 viewBox="0 0 300 350" enable-background="new 0 0 300 350" xml:space="preserve">
<g>
	<path fill="#FFA45B" stroke="#000000" stroke-miterlimit="10" d="M132.2,91.1L132.2,91.1c-23.2,0-42-18.8-42-42v0
		c0-23.2,18.8-42,42-42h0c23.2,0,42,18.8,42,42v0C174.1,72.3,155.3,91.1,132.2,91.1z"/>
	<path fill="#FFDA77" stroke="#000000" stroke-miterlimit="10" d="M48.2,258.9L48.2,258.9c-23.2,0-42-18.8-42-42v0
		c0-23.2,18.8-42,42-42h0c23.2,0,42,18.8,42,42v0C90.2,240.1,71.4,258.9,48.2,258.9z"/>
	<path fill="#FFDA77" stroke="#000000" stroke-miterlimit="10" d="M132.2,342.8L132.2,342.8c-23.2,0-42-18.8-42-42v0
		c0-23.2,18.8-42,42-42h0c23.2,0,42,18.8,42,42v0C174.1,324.1,155.3,342.8,132.2,342.8z"/>
	<path fill="#FFDA77" stroke="#000000" stroke-miterlimit="10" d="M216.1,91.1L216.1,91.1c-23.2,0-42-18.8-42-42v0
		c0-23.2,18.8-42,42-42h0c23.2,0,42,18.8,42,42v0C258,72.3,239.3,91.1,216.1,91.1z"/>
	<path fill="#FFA45B" stroke="#000000" stroke-miterlimit="10" d="M48.2,175L48.2,175c-23.2,0-42-18.8-42-42v0c0-23.2,18.8-42,42-42
		h0c23.2,0,42,18.8,42,42v0C90.2,156.2,71.4,175,48.2,175z"/>
	<path fill="#FFA45B" stroke="#000000" stroke-miterlimit="10" d="M216.1,342.8L216.1,342.8c-23.2,0-42-18.8-42-42v0
		c0-23.2,18.8-42,42-42h0c23.2,0,42,18.8,42,42v0C258,324.1,239.3,342.8,216.1,342.8z"/>
	<path fill="#FFDA77" stroke="#000000" stroke-miterlimit="10" d="M268.7,116.1L268.7,116.1c-13.8,0-25-11.2-25-25v0
		c0-13.8,11.2-25,25-25h0c13.8,0,25,11.2,25,25v0C293.7,104.9,282.5,116.1,268.7,116.1z"/>
	<path fill="#FFA45B" stroke="#000000" stroke-miterlimit="10" d="M268.7,283.9L268.7,283.9c-13.8,0-25-11.2-25-25v0
		c0-13.8,11.2-25,25-25h0c13.8,0,25,11.2,25,25v0C293.7,272.7,282.5,283.9,268.7,283.9z"/>
	<path stroke="#000000" stroke-miterlimit="10" d="M67.4,306.8L67.4,306.8c-13.8,0-25-11.2-25-25v0c0-13.8,11.2-25,25-25h0
		c13.8,0,25,11.2,25,25v0C92.4,295.7,81.2,306.8,67.4,306.8z"/>
	<path stroke="#000000" stroke-miterlimit="10" d="M67.4,93.6L67.4,93.6c-13.8,0-25-11.2-25-25v0c0-13.8,11.2-25,25-25h0
		c13.8,0,25,11.2,25,25v0C92.4,82.4,81.2,93.6,67.4,93.6z"/>
</g>
</svg>
