<svg width="0" height="0" class="hidden">
  <!-- id="charade-logo" -->
  <symbol xmlns="http://www.w3.org/2000/svg" viewBox="0 0 300 350" id="charade-logo">
    <g stroke="#000" stroke-miterlimit="10">
      <path fill="#FFA45B"
        d="M132.2 91.1h0c-23.2 0-42-18.8-42-42v0c0-23.2 18.8-42 42-42h0c23.2 0 42 18.8 42 42v0c-.1 23.2-18.9 42-42 42z">
      </path>
      <path fill="#FFDA77"
        d="M48.2 258.9h0c-23.2 0-42-18.8-42-42v0c0-23.2 18.8-42 42-42h0c23.2 0 42 18.8 42 42v0c0 23.2-18.8 42-42 42zm84 83.9h0c-23.2 0-42-18.8-42-42v0c0-23.2 18.8-42 42-42h0c23.2 0 42 18.8 42 42v0c-.1 23.3-18.9 42-42 42zm83.9-251.7h0c-23.2 0-42-18.8-42-42v0c0-23.2 18.8-42 42-42h0c23.2 0 42 18.8 42 42v0c-.1 23.2-18.8 42-42 42z">
      </path>
      <path fill="#FFA45B"
        d="M48.2 175h0c-23.2 0-42-18.8-42-42v0c0-23.2 18.8-42 42-42h0c23.2 0 42 18.8 42 42v0c0 23.2-18.8 42-42 42zm167.9 167.8h0c-23.2 0-42-18.8-42-42v0c0-23.2 18.8-42 42-42h0c23.2 0 42 18.8 42 42v0c-.1 23.3-18.8 42-42 42z">
      </path>
      <path fill="#FFDA77"
        d="M268.7 116.1h0c-13.8 0-25-11.2-25-25v0c0-13.8 11.2-25 25-25h0c13.8 0 25 11.2 25 25v0c0 13.8-11.2 25-25 25z">
      </path>
      <path fill="#FFA45B"
        d="M268.7 283.9h0c-13.8 0-25-11.2-25-25v0c0-13.8 11.2-25 25-25h0c13.8 0 25 11.2 25 25v0c0 13.8-11.2 25-25 25z">
      </path>
      <path
        d="M67.4 306.8h0c-13.8 0-25-11.2-25-25v0c0-13.8 11.2-25 25-25h0c13.8 0 25 11.2 25 25v0c0 13.9-11.2 25-25 25zm0-213.2h0c-13.8 0-25-11.2-25-25v0c0-13.8 11.2-25 25-25h0c13.8 0 25 11.2 25 25v0c0 13.8-11.2 25-25 25z">
      </path>
    </g>
  </symbol>
  <!-- id="right-arrow" -->
  <symbol xmlns="http://www.w3.org/2000/svg" viewBox="0 0 492.004 492.004" id="right-arrow">
    <path
      d="M382.678 226.804L163.73 7.86C158.666 2.792 151.906 0 144.698 0s-13.968 2.792-19.032 7.86l-16.124 16.12c-10.492 10.504-10.492 27.576 0 38.064L293.398 245.9l-184.06 184.06c-5.064 5.068-7.86 11.824-7.86 19.028 0 7.212 2.796 13.968 7.86 19.04l16.124 16.116c5.068 5.068 11.824 7.86 19.032 7.86s13.968-2.792 19.032-7.86L382.678 265c5.076-5.084 7.864-11.872 7.848-19.088.016-7.244-2.772-14.028-7.848-19.108z">
    </path>
  </symbol>
  <!-- id="left-arrow" -->
  <symbol xmlns="http://www.w3.org/2000/svg" viewBox="0 0 492 492" id="left-arrow">
    <path
      d="M198.608,246.104L382.664,62.04c5.068-5.056,7.856-11.816,7.856-19.024c0-7.212-2.788-13.968-7.856-19.032l-16.128-16.12 C361.476,2.792,354.712,0,347.504,0s-13.964,2.792-19.028,7.864L109.328,227.008c-5.084,5.08-7.868,11.868-7.848,19.084 c-0.02,7.248,2.76,14.028,7.848,19.112l218.944,218.932c5.064,5.072,11.82,7.864,19.032,7.864c7.208,0,13.964-2.792,19.032-7.864 l16.124-16.12c10.492-10.492,10.492-27.572,0-38.06L198.608,246.104z" />
  </symbol>
  <!-- id="like" -->
  <symbol xmlns="http://www.w3.org/2000/svg" x="0px" y="0px" viewBox="0 0 512 512"
    style="enable-background:new 0 0 512 512;" id="like">
    <g>
      <path
        d="M346,0c-5.522,0-10,4.478-10,10v46c0,5.522,4.478,10,10,10c5.522,0,10-4.478,10-10V10C356,4.478,351.522,0,346,0z" />
    </g>
    <g>
      <path d="M116,312c-5.52,0-10,4.48-10,10c0,5.52,4.48,10,10,10s10-4.48,10-10C126,316.48,121.52,312,116,312z" />
    </g>
    <g>
      <path d="M486,292c0-22.056-17.944-40-40-40h-74.652c11.557-29.603,16.235-64.447,15.333-95.464
			c-0.172-5.919-0.399-9.342-0.706-11.497C385.458,123.432,367.716,106,346,106c-22.056,0-40,17.944-40,40v10
			c0,63.246-81.214,98.781-142.504,114.019C158.862,259.425,148.284,252,136,252H36c-5.522,0-10,4.478-10,10v240
			c0,5.522,4.478,10,10,10h100c12.202,0,22.719-7.327,27.401-17.809c5.075,1.302,9.786,2.532,14.135,3.668
			C212.451,506.978,231.684,512,278.46,512H386c22.056,0,40-17.944,40-40c0-8.224-2.497-15.874-6.77-22.238
			C434.678,444.359,446,429.599,446,412c0-8.194-2.436-15.869-6.696-22.262C454.684,384.326,466,369.6,466,352
			c0-8.224-2.497-15.874-6.77-22.238C474.678,324.359,486,309.599,486,292z M146,482c0,5.514-4.486,10-10,10H46V272h90
			c5.514,0,10,4.486,10,10V482z M446,312c-21.449,0-26.562,0-50,0c-5.522,0-10,4.478-10,10c0,5.522,4.478,10,10,10h30
			c11.028,0,20,8.972,20,20c0,11.046-8.954,20-20,20h-50c-5.522,0-10,4.478-10,10c0,5.522,4.478,10,10,10h30
			c10.897,0,20,8.705,20,20c0,11.046-8.954,20-20,20c-21.449,0-26.562,0-50,0c-5.522,0-10,4.478-10,10c0,5.522,4.478,10,10,10h30
			c11.028,0,20,8.972,20,20s-8.972,20-20,20H278.46c-44.207,0-61.473-4.509-95.87-13.492c-5.039-1.316-10.566-2.759-16.59-4.295
			V290.025C238.368,272.787,326,230.711,326,156v-10c0-11.028,8.972-20,20-20c11.008,0,19.979,8.958,20,19.969V146
			c0,4.346,5.424,57.683-16.326,106H316c-5.522,0-10,4.478-10,10c0,5.522,4.478,10,10,10c6.983,0,118.602,0,130,0
			c11.028,0,20,8.972,20,20C466,303.046,457.046,312,446,312z" />
    </g>
    <g>
      <path d="M116,352c-5.522,0-10,4.478-10,10v80c0,5.522,4.478,10,10,10c5.522,0,10-4.478,10-10v-80C126,356.478,121.522,352,116,352
			z" />
    </g>
    <g>
      <path d="M266,126h-40c-5.522,0-10,4.478-10,10c0,5.522,4.478,10,10,10h40c5.522,0,10-4.478,10-10C276,130.478,271.522,126,266,126
			z" />
    </g>
    <g>
      <path d="M466,126h-40c-5.522,0-10,4.478-10,10c0,5.522,4.478,10,10,10h40c5.522,0,10-4.478,10-10C476,130.478,471.522,126,466,126
			z" />
    </g>
    <g>
      <path d="M437.921,44.079c-3.906-3.904-10.236-3.904-14.143,0l-28.279,28.279c-3.905,3.905-3.905,10.237,0,14.143
			c3.907,3.905,10.236,3.904,14.143,0l28.279-28.279C441.826,54.317,441.826,47.985,437.921,44.079z" />
    </g>
    <g>
      <path d="M296.501,72.358l-28.279-28.279c-3.906-3.904-10.236-3.904-14.143,0c-3.905,3.905-3.905,10.237,0,14.143l28.279,28.279
			c3.908,3.905,10.237,3.904,14.143,0C300.406,82.596,300.406,76.264,296.501,72.358z" />
    </g>
  </symbol>
  <!-- id="save" -->
  <symbol xmlns="http://www.w3.org/2000/svg" x="0px" y="0px" viewBox="0 0 396.88 396.88"
    style="enable-background:new 0 0 396.88 396.88;" id="save">
    <g>
      <path d="M321.16,0L75.72,0c-4.418,0-8,3.582-8,8v380.88c-0.011,3.191,1.875,6.084,4.8,7.36c1.011,0.431,2.101,0.649,3.2,0.64
			c1.983-0.005,3.893-0.746,5.36-2.08L198.44,288L315.8,394.8c3.28,2.96,8.339,2.701,11.299-0.579
			c1.322-1.465,2.056-3.367,2.061-5.341V8C329.16,3.582,325.578,0,321.16,0z M203.8,271.28c-3.057-2.797-7.743-2.797-10.8,0
			L83.72,370.8V16h229.44l0,354.8L203.8,271.28z" />
    </g>
    <g>
      <path
        d="M284.334,117.488c-1.232-1.28-2.856-2.113-4.614-2.368l-51.2-7.44l-23.2-46c-1.971-3.954-6.774-5.562-10.729-3.591
			c-1.555,0.775-2.816,2.036-3.591,3.591l-22.88,46.4l-51.2,7.44c-4.372,0.634-7.403,4.693-6.768,9.066
			c0.255,1.758,1.088,3.382,2.368,4.614l37.28,35.68l-8.48,51.36c-0.724,4.359,2.222,8.479,6.58,9.203
			c1.716,0.285,3.478,0.003,5.02-0.803l45.76-24l45.76,24c3.915,2.048,8.749,0.535,10.797-3.38c0.806-1.541,1.088-3.304,0.803-5.02
			l-8.96-51.36l37.04-36.08C287.303,125.736,287.399,120.671,284.334,117.488z M232.92,156.88c-1.879,1.825-2.746,4.455-2.32,7.04
			l6.72,39.04l-35.2-18.48c-2.329-1.223-5.111-1.223-7.44,0l-35.12,18.48l6.72-39.12c0.426-2.585-0.441-5.215-2.32-7.04l-28.4-27.68
			l39.28-6.16c2.602-0.391,4.845-2.036,6-4.4l17.6-35.6l17.6,35.6c1.155,2.364,3.398,4.009,6,4.4l39.28,5.68L232.92,156.88z" />
    </g>
  </symbol>
  <!-- id="report" -->
  <symbol xmlns="http://www.w3.org/2000/svg" fill="#000000" viewBox="0 0 256 256" id="report">
    <rect width="256" height="256" fill="none"></rect>
    <line x1="128" y1="96" x2="128" y2="144" fill="none" stroke="#000000" stroke-linecap="round" stroke-linejoin="round"
      stroke-width="16"></line>
    <path
      d="M114.15243,39.98472,26.17616,191.977a16.00005,16.00005,0,0,0,13.84762,24.01535H215.97625A16,16,0,0,0,229.82386,191.977L141.84757,39.98472A16,16,0,0,0,114.15243,39.98472Z"
      fill="none" stroke="#000000" stroke-linecap="round" stroke-linejoin="round" stroke-width="10"></path>
    <circle cx="128" cy="180" r="12"></circle>
  </symbol>
  <!-- id="checkmark" -->
  <symbol viewBox="0 -16 512.06719 512" xmlns="http://www.w3.org/2000/svg" id="checkmark">
    <path
      d="m324.082031 480.058594c-7.550781 0-14.996093-2.328125-21.375-6.914063l-59.796875-42.921875c-1.558594-1.046875-4.140625-1.066406-5.996094.191406l-59.519531 42.710938c-10.664062 7.507812-24 8.9375-35.773437 4.007812-11.734375-4.925781-19.992188-15.378906-22.0625-27.964843l-12.074219-72.683594c-.339844-2.003906-1.917969-3.585937-3.945313-3.925781l-72.703124-12.074219c-12.566407-2.070313-23.019532-10.304687-27.949219-22.058594-4.949219-11.796875-3.476563-25.132812 3.949219-35.648437l42.984374-59.902344c1.066407-1.558594 1.066407-4.140625-.191406-5.996094l-42.664062-59.457031c-7.488282-10.429687-8.984375-23.722656-4.078125-35.582031 4.910156-11.863282 15.382812-20.183594 28.011719-22.25l72.683593-12.078125c2.003907-.339844 3.582031-1.917969 3.925781-3.945313l12.074219-72.703125c2.070313-12.566406 10.304688-22.996093 22.058594-27.925781 11.777344-4.972656 25.128906-3.5 35.648437 3.945312l59.902344 42.988282c1.707032 1.214844 4.03125 1.238281 5.738282-.023438l59.757812-42.898437c10.429688-7.46875 23.742188-8.960938 35.582031-4.054688 11.863281 4.90625 20.160157 15.382813 22.25 28.011719l4.054688 24.40625c1.449219 8.722656-4.4375 16.957031-13.164063 18.410156-8.746094 1.40625-16.957031-4.4375-18.410156-13.164062l-4.054688-24.449219c-.359374-2.28125-1.980468-3.261719-2.921874-3.648437-.917969-.402344-2.792969-.851563-4.671876.492187l-59.773437 42.921875c-12.886719 9.195312-30.144531 9.195312-43.007813.023438l-59.839843-42.945313c-1.902344-1.34375-3.800781-.894531-4.714844-.511719-1.109375.46875-2.496094 1.472656-2.859375 3.648438l-12.097656 72.746094c-2.582032 15.507812-14.71875 27.648437-30.230469 30.230468l-72.722656 12.09375c-2.285157.363282-3.265625 1.984375-3.648438 2.925782-.40625.9375-.855469 2.792968.488281 4.671874l42.070313 58.515626c9.75 14.25 9.75 31.316406 1.046875 44.011718l-43.117188 60.074219c-1.34375 1.898437-.894531 3.796875-.511718 4.734375.472656 1.109375 1.472656 2.496094 3.648437 2.859375l72.746094 12.097656c15.511719 2.578125 27.648437 14.71875 30.230469 30.226563l12.074218 72.726562c.363282 2.199219 1.773438 3.199219 2.859376 3.667969.917968.386719 2.796874.832031 4.84375-.574219l59.667968-42.835937c12.992188-8.898438 30.058594-8.898438 42.753906-.195313l60.074219 43.117188c1.875 1.34375 3.710938.894531 4.671875.488281.917969-.382813 2.558594-1.363281 2.921875-3.625l12.097657-72.746094c2.578124-15.511719 14.71875-27.648437 30.226562-30.230469l72.726562-12.074218c2.199219-.363282 3.199219-1.769532 3.667969-2.859375.386719-.9375.855469-2.816407-.574219-4.84375l-42.835937-59.667969c-5.144531-7.167969-3.523437-17.171875 3.667969-22.335938 7.167968-5.121093 17.195312-3.5 22.335937 3.667969l42.921875 59.800781c7.488282 10.644532 8.960938 23.976563 4.011719 35.773438-4.929687 11.734375-15.382813 19.988281-27.96875 22.058594l-72.683594 12.074218c-2.003906.34375-3.582031 1.921876-3.925781 3.949219l-12.074219 72.703125c-2.066406 12.585938-10.386719 23.0625-22.226562 27.988282-4.609375 1.835937-9.429688 2.753906-14.210938 2.753906zm0 0" />
    <path
      d="m261.382812 298.722656c-4.09375 0-8.191406-1.554687-11.304687-4.691406l-96-96c-6.25-6.25-6.25-16.382812 0-22.636719 6.25-6.25 16.382813-6.25 22.632813 0l84.695312 84.695313 223.339844-223.339844c6.25-6.25 16.382812-6.25 22.632812 0s6.25 16.382812 0 22.636719l-234.667968 234.664062c-3.132813 3.117188-7.230469 4.671875-11.328126 4.671875zm0 0" />
  </symbol>
  <!-- id="sand-timer" -->
  <symbol version="1.1" id="sand-timer" xmlns="http://www.w3.org/2000/svg" viewBox="0 0 477.867 477.867"
    style="enable-background:new 0 0 477.867 477.867;">
    <g>
      <path d="M425.523,393.284c-3.949-31.526-19.332-60.506-43.23-81.442l-83.302-72.909l83.302-72.909
			c23.898-20.936,39.281-49.916,43.23-81.442c23.151-4.391,38.36-26.718,33.969-49.87C455.712,14.78,438.419,0.267,418.133,0h-358.4
			c-23.562,0.31-42.412,19.661-42.103,43.223c0.266,20.286,14.78,37.579,34.713,41.359c3.949,31.526,19.331,60.506,43.23,81.442
			l83.302,72.909l-83.302,72.909c-23.898,20.936-39.281,49.916-43.23,81.442c-23.151,4.391-38.36,26.718-33.969,49.87
			c3.78,19.932,21.073,34.446,41.359,34.713h358.4c23.562-0.31,42.412-19.661,42.103-43.223
			C459.969,414.357,445.455,397.065,425.523,393.284z M51.2,42.667c0-4.713,3.82-8.533,8.533-8.533h358.4
			c4.713,0,8.533,3.82,8.533,8.533s-3.82,8.533-8.533,8.533h-358.4C55.021,51.2,51.2,47.38,51.2,42.667z M118.033,337.527
			l97.997-85.76c7.069-6.234,7.746-17.019,1.511-24.089c-0.472-0.535-0.977-1.04-1.511-1.511l-97.997-85.828
			c-16.315-14.279-27.302-33.671-31.164-55.006h304.128c-3.862,21.334-14.848,40.727-31.164,55.006l-97.997,85.76
			c-7.069,6.234-7.746,17.019-1.511,24.089c0.472,0.535,0.977,1.04,1.511,1.511l97.997,85.76
			c16.329,14.296,27.317,33.715,31.164,55.074H86.869C90.731,371.199,101.718,351.806,118.033,337.527z M418.133,443.733h-358.4
			c-4.713,0-8.533-3.821-8.533-8.533c0-4.713,3.82-8.533,8.533-8.533h358.4c4.713,0,8.533,3.821,8.533,8.533
			C426.667,439.913,422.846,443.733,418.133,443.733z" />
    </g>
  </symbol>
  <!-- id="home" -->
  <symbol version="1.1" id="home" xmlns="http://www.w3.org/2000/svg" viewBox="0 0 512 512"
    style="enable-background:new 0 0 512 512;">
    <g transform="translate(1 1)">
      <g>
        <path
          d="M504.017,217.881L271.571,6.567l-2.221-2.019c-1.526-1.387-3.202-2.514-4.973-3.381c-0.079-0.038-0.161-0.066-0.24-0.104
			c-5.772-2.738-12.503-2.738-18.276,0c-0.079,0.037-0.161,0.065-0.24,0.104c-1.771,0.867-3.447,1.994-4.973,3.381l-2.189,1.99
			L5.983,217.881c-8.718,7.925-9.361,21.418-1.435,30.136c7.925,8.718,21.418,9.361,30.136,1.435l6.983-6.348v246.563
			C41.667,501.449,51.218,511,63,511h106.667h170.667H447c11.782,0,21.333-9.551,21.333-21.333V243.104l6.983,6.348
			c8.718,7.926,22.21,7.283,30.136-1.435C513.378,239.299,512.735,225.807,504.017,217.881z M212.333,468.334v-128
			c0-23.567,19.099-42.667,42.667-42.667s42.667,19.099,42.667,42.667v128H212.333z M425.667,468.334h-85.333v-128
			C340.334,293.202,302.132,255,255,255s-85.333,38.202-85.333,85.333v128H84.333V204.32L255,49.165L425.667,204.32V468.334z" />
      </g>
    </g>
  </symbol>
  <!-- id="exit-button" -->
  <symbol version="1.1" id="exit-button" xmlns="http://www.w3.org/2000/svg" viewBox="0 0 512 512"
    style="enable-background:new 0 0 512 512;">
    <g>
      <path d="M503.971,242.039l-121.055-89.303c-9.814-7.24-23.72-0.206-23.72,11.977v44.651h-29.768V44.651
			C329.429,20.031,309.398,0,284.777,0H46.637C22.063,0,1.986,20.027,1.986,44.651c0,13.702,0,324.373,0,343.264
			c0,14.963,7.433,28.852,19.884,37.152l119.07,79.38c29.642,19.762,69.42-1.572,69.42-37.152v-18.797h74.419
			c24.621,0,44.651-20.031,44.651-44.651V298.668h29.768v44.651c0,12.27,13.981,19.161,23.72,11.977l121.055-89.303
			C512.029,260.049,512.028,247.983,503.971,242.039z M157.452,479.678l-119.07-79.38c-4.151-2.767-6.628-7.397-6.628-12.384
			c0-4.22,0-287.54,0-343.264c0-1.834,0.349-3.583,0.958-5.206l137.171,68.586c4.885,2.442,10.708,6.95,10.708,14.553v344.711h0.001
			C180.592,479.194,167.359,486.285,157.452,479.678z M299.662,403.847c0,8.207-6.677,14.884-14.884,14.884H210.36V122.584
			c0-17.537-9.901-32.546-27.163-41.178L79.919,29.768h204.859c8.207,0,14.884,6.677,14.884,14.884v164.714h-44.651
			c-8.22,0-14.884,6.664-14.884,14.884v59.535c0,8.22,6.664,14.884,14.884,14.884h44.651V403.847z M388.965,313.843v-30.059
			c0-8.22-6.664-14.884-14.884-14.884H269.895v-29.768h104.186c8.22,0,14.884-6.664,14.884-14.884V194.19l81.099,59.827
			L388.965,313.843z" />
    </g>
  </symbol>
  <!-- id="sound" -->
  <symbol version="1.1" id="sound" xmlns="http://www.w3.org/2000/svg" x="0px" y="0px" viewBox="0 0 480 480"
    style="enable-background:new 0 0 480 480;">
    <g>
      <path d="M278.944,17.577c-5.568-2.656-12.128-1.952-16.928,1.92L106.368,144.009H32c-17.632,0-32,14.368-32,32v128
			c0,17.632,14.368,32,32,32h74.368l155.616,124.512c2.912,2.304,6.464,3.488,10.016,3.488c2.368,0,4.736-0.512,6.944-1.568
			c5.536-2.688,9.056-8.288,9.056-14.432v-416C288,25.865,284.48,20.265,278.944,17.577z M96,304.009H32v-128h64V304.009z
			 M256,414.697l-128-102.4V167.721l128-102.4V414.697z" />
    </g>
    <g>
      <path d="M369.024,126.857c-6.304-6.24-16.416-6.144-22.624,0.128c-6.208,6.304-6.144,16.416,0.128,22.624
			c24.16,23.904,37.472,56,37.472,90.4c0,34.4-13.312,66.496-37.472,90.4c-6.304,6.208-6.368,16.32-0.128,22.624
			c3.136,3.168,7.264,4.736,11.36,4.736c4.064,0,8.128-1.536,11.264-4.64c30.304-29.92,46.976-70.08,46.976-113.12
			C416,196.969,399.328,156.809,369.024,126.857z" />
    </g>
    <g>
      <path d="M414.144,81.769c-6.272-6.208-16.416-6.176-22.624,0.096c-6.208,6.272-6.176,16.416,0.096,22.624
			C427.968,140.553,448,188.681,448,240.009s-20.032,99.456-56.384,135.52c-6.272,6.208-6.304,16.352-0.096,22.624
			c3.136,3.168,7.232,4.736,11.36,4.736c4.064,0,8.128-1.536,11.264-4.64C456.608,356.137,480,299.945,480,240.009
			C480,180.073,456.608,123.881,414.144,81.769z" />
    </g>
  </symbol>
  <!-- id="mute" -->
  <symbol version="1.1" id="mute" xmlns="http://www.w3.org/2000/svg" x="0px" y="0px" viewBox="0 0 448.023 448.023"
    style="enable-background:new 0 0 448.023 448.023;">
    <g>
      <path d="M342.94,1.591c-5.6-2.688-12.128-1.92-16.928,1.92l-127.68,102.08c-6.912,5.504-8,15.584-2.496,22.496
			c5.536,6.944,15.584,8.064,22.496,2.528l101.664-81.312v196.48c0,8.864,7.168,16,16,16c8.832,0,16-7.168,16-16V16.023
			C351.996,9.879,348.476,4.279,342.94,1.591z" />
    </g>
    <g>
      <path d="M443.324,420.727l-95.968-95.968l-0.032-0.032l-160-160l-0.032-0.032l-31.968-31.968l-0.032-0.032l-127.968-128
			c-6.24-6.24-16.384-6.24-22.624,0c-6.24,6.24-6.24,16.384,0,22.624l100.672,100.704h-9.376c-17.952,0-32,14.048-32,32v128
			c0,17.952,14.048,32,32,32h74.368L325.98,444.535c2.912,2.304,6.464,3.488,10.016,3.488c2.336,0,4.704-0.512,6.944-1.568
			c5.536-2.688,9.056-8.288,9.056-14.432v-57.376l68.672,68.672c3.136,3.136,7.232,4.704,11.328,4.704s8.192-1.568,11.328-4.672
			C449.564,437.111,449.564,426.967,443.324,420.727z M159.996,288.023h-64v-128h41.376l22.624,22.624V288.023z M319.996,398.711
			l-128-102.4v-81.664l128,128V398.711z" />
    </g>
  </symbol>
  <!-- id="replay-button" -->
  <symbol version="1.1" id="replay-button" xmlns="http://www.w3.org/2000/svg" viewBox="0 0 305.836 305.836"
    style="enable-background:new 0 0 305.836 305.836;">
    <g>
      <path d="M152.924,300.748c84.319,0,152.912-68.6,152.912-152.918c0-39.476-15.312-77.231-42.346-105.564
		c0,0,3.938-8.857,8.814-19.783c4.864-10.926-2.138-18.636-15.648-17.228l-79.125,8.289c-13.511,1.411-17.999,11.467-10.021,22.461
		l46.741,64.393c7.986,10.992,17.834,12.31,22.008,2.937l7.56-16.964c12.172,18.012,18.976,39.329,18.976,61.459
		c0,60.594-49.288,109.875-109.87,109.875c-60.591,0-109.882-49.287-109.882-109.875c0-19.086,4.96-37.878,14.357-54.337
		c5.891-10.325,2.3-23.467-8.025-29.357c-10.328-5.896-23.464-2.3-29.36,8.031C6.923,95.107,0,121.27,0,147.829
		C0,232.148,68.602,300.748,152.924,300.748z" />
    </g>
  </symbol>
  <!-- id="cross" -->
  <symbol version="1.1" id="cross" xmlns="http://www.w3.org/2000/svg" viewBox="0 0 329.26933 329">
    <path
      d="m194.800781 164.769531 128.210938-128.214843c8.34375-8.339844 8.34375-21.824219 0-30.164063-8.339844-8.339844-21.824219-8.339844-30.164063 0l-128.214844 128.214844-128.210937-128.214844c-8.34375-8.339844-21.824219-8.339844-30.164063 0-8.34375 8.339844-8.34375 21.824219 0 30.164063l128.210938 128.214843-128.210938 128.214844c-8.34375 8.339844-8.34375 21.824219 0 30.164063 4.15625 4.160156 9.621094 6.25 15.082032 6.25 5.460937 0 10.921875-2.089844 15.082031-6.25l128.210937-128.214844 128.214844 128.214844c4.160156 4.160156 9.621094 6.25 15.082032 6.25 5.460937 0 10.921874-2.089844 15.082031-6.25 8.34375-8.339844 8.34375-21.824219 0-30.164063zm0 0" />
  </symbol>
</svg>